<?xml version="1.0"?><svg width="640" height="480" xmlns="http://www.w3.org/2000/svg">
 <!-- Created with SVG-edit - http://svg-edit.googlecode.com/ -->
 <title>question mark</title>
 <g>
  <title>Layer 1</title>

  <ellipse id="svg_5" ry="22" rx="23" cy="413.5" cx="248.5" stroke-linecap="null" stroke-linejoin="null" stroke-dasharray="null" stroke="#000000" fill="#000000"/>
  <path id="svg_4" d="m179.696304,107.980942c-8.666672,22.333344 14.333328,30.333328 20,29c5.666672,-1.333328 34.666702,-58.333344 87.000015,-46c52.333313,12.333344 63.333344,43.333328 56,75c-7.333344,31.666672 -65.333344,45 -94,76.000015c-28.666656,31 -29.333344,88.333313 -20,109c9.333313,20.666656 32.666656,24.666656 34,2c1.333344,-22.666687 -9,-66.333313 25,-96c34,-29.666687 84,-61.333344 92,-95.000015c8,-33.666672 -14.666656,-84.666656 -81,-103c-66.333344,-18.333336 -110.333344,26.666656 -119.000015,49z" stroke="#000000" fill="#000000"/>
  <path id="svg_1" d="m172,112c-8.666672,22.333344 14.333328,30.333328 20,29c5.666672,-1.333328 34.666687,-58.333344 87,-46c52.333313,12.333344 63.333344,43.333328 56,75c-7.333344,31.666672 -65.333344,45 -94,76c-28.666656,31 -29.333328,88.333344 -20,109c9.333328,20.666656 32.666656,24.666656 34,2c1.333344,-22.666656 -9,-66.333313 25,-96c34,-29.666672 84,-61.333328 92,-95c8,-33.666672 -14.666656,-84.666656 -81,-103c-66.333344,-18.33334 -110.333328,26.666656 -119,49z" stroke-width="5" stroke="#000000" fill="#ffffff"/>
  <ellipse ry="22" rx="23" id="svg_2" cy="416" cx="244" stroke-linecap="null" stroke-linejoin="null" stroke-dasharray="null" stroke-width="5" stroke="#000000" fill="#ffffff"/>
 </g>
</svg>